<?xml version="1.0" encoding="utf-8"?>
<!-- Generator: Adobe Illustrator 24.1.2, SVG Export Plug-In . SVG Version: 6.00 Build 0)  -->
<svg version="1.1" id="Layer_1" xmlns="http://www.w3.org/2000/svg" xmlns:xlink="http://www.w3.org/1999/xlink" x="0px" y="0px"
	 viewBox="0 0 32 32" style="enable-background:new 0 0 32 32;" xml:space="preserve">
<style type="text/css">
	.st0{fill:#D62230;}
	.st1{fill:#FFFFFF;}
</style>
<polygon class="st0" points="0,0 32,32 32,16 16,0 "/>
<g>
	<path class="st1" d="M13.3,8.3l1.8,1.8l-0.6,0.6L12,8.1l4-4l0.7,0.7L13.3,8.3z"/>
	<path class="st1" d="M15.8,11.9l-0.7-0.7l4-4l0.7,0.7L15.8,11.9z"/>
	<path class="st1" d="M19,13.3l4.2-2.1l0.8,0.8l-5.5,2.6l-0.7-0.7l2.6-5.5l0.8,0.8L19,13.3z"/>
	<path class="st1" d="M24.5,17l-1.7-1.7l-1.2,1.2l1.9,1.9L23,19.1l-2.6-2.6l4-4L27,15l-0.6,0.6l-1.9-1.9l-1.1,1.1l1.7,1.7L24.5,17z"
		/>
</g>
</svg>
