<?xml version="1.0" encoding="utf-8"?>
<!-- Generator: Adobe Illustrator 24.1.2, SVG Export Plug-In . SVG Version: 6.00 Build 0)  -->
<svg version="1.1" id="Layer_1" xmlns="http://www.w3.org/2000/svg" xmlns:xlink="http://www.w3.org/1999/xlink" x="0px" y="0px"
	 viewBox="0 0 32 32" style="enable-background:new 0 0 32 32;" xml:space="preserve">
<style type="text/css">
	.st0{fill:#FFFFFF;}
</style>
<path class="st0" d="M30,18H2c-1.1,0-2-0.9-2-2v0c0-1.1,0.9-2,2-2h28c1.1,0,2,0.9,2,2v0C32,17.1,31.1,18,30,18z"/>
<path class="st0" d="M30,9H2C0.9,9,0,8.1,0,7v0c0-1.1,0.9-2,2-2h28c1.1,0,2,0.9,2,2v0C32,8.1,31.1,9,30,9z"/>
<path class="st0" d="M30,27H2c-1.1,0-2-0.9-2-2v0c0-1.1,0.9-2,2-2h28c1.1,0,2,0.9,2,2v0C32,26.1,31.1,27,30,27z"/>
</svg>
